<svg xmlns="http://www.w3.org/2000/svg" viewBox="0 0 120 120" width="120" height="120">
  <circle cx="60" cy="60" r="58" fill="#073763"/>
  <path d="M30 78
           C 30 60, 40 40, 62 36
           C 80 33, 90 44, 88 54
           C 86 62, 76 60, 74 52
           C 73 48, 68 47, 67 51
           C 65 58, 72 62, 78 60
           C 84 64, 80 72, 72 70
           C 60 67, 56 75, 60 80
           C 64 85, 56 90, 50 86
           C 44 92, 34 90, 34 82
           C 34 80, 31 80, 30 78 Z"
        fill="#f6921e" stroke="#c46a10" stroke-width="2"/>
  <circle cx="63" cy="44" r="2.4" fill="#073763"/>
  <path d="M28 80 L20 86 M28 76 L18 78" stroke="#f6921e" stroke-width="2.5" stroke-linecap="round"/>
  <text x="60" y="106" font-family="Poppins, Arial, sans-serif" font-size="13" font-weight="700"
        fill="#ffffff" text-anchor="middle">MONMIFISH</text>
</svg>
